<?xml version="1.0" standalone="no"?><!DOCTYPE svg PUBLIC "-//W3C//DTD SVG 1.1//EN" "http://www.w3.org/Graphics/SVG/1.1/DTD/svg11.dtd"><svg t="1716275653753" class="icon" viewBox="0 0 1024 1024" version="1.1" xmlns="http://www.w3.org/2000/svg" p-id="2719" xmlns:xlink="http://www.w3.org/1999/xlink" width="200" height="200"><path d="M512 768a256 256 0 1 0 0-512 256 256 0 0 0 0 512z m0 64a320 320 0 1 1 0-640 320 320 0 0 1 0 640z m-53.333333-258.56l168.106666-168.106667a32 32 0 0 1 45.226667 45.226667l-183.168 183.210667a42.666667 42.666667 0 0 1-60.330667 0L352 557.226667A32 32 0 1 1 397.226667 512l61.44 61.44z" fill="#20a028" p-id="2720"></path></svg>